# xmcd
#
# Track frame offsets:
#	150
#	11574
#	28751
#	41630
#	52899
#	70081
#	81116
#	93418
#	109246
#	121793
#	131564
#
# Disc length: 1901 seconds
#
# Revision: 1
# Processed by: cddbd v1.5.1PL0 Copyright (c) Steve Scherf et al.
# Submitted via: audiograbber 1.80.04
#
DISCID=88076b0b
DTITLE=John Lee Hooker - Burnin'
DYEAR=1962
DGENRE=Blues
TTITLE0=Boom Boom
TTITLE1=Process
TTITLE2=Lost A Good Girl
TTITLE3=A New Leaf
TTITLE4=Blues Before Sunrise
TTITLE5=Let's Make It
TTITLE6=I Got A Letter
TTITLE7=Thelma
TTITLE8=Drug Store Woman
TTITLE9=Keep Your Hands To Yourself
TTITLE10=What Do You Say
EXTD=
EXTT0=
EXTT1=
EXTT2=
EXTT3=
EXTT4=
EXTT5=
EXTT6=
EXTT7=
EXTT8=
EXTT9=
EXTT10=
PLAYORDER=
